<?plantuml 1.2026.2?><svg xmlns="http://www.w3.org/2000/svg" xmlns:xlink="http://www.w3.org/1999/xlink" contentStyleType="text/css" data-diagram-type="CLASS" height="604.5px" preserveAspectRatio="none" style="width:2352px;height:604px;background:#FFFFFF;" version="1.1" viewBox="0 0 2352 604" width="2352.125px" zoomAndPan="magnify"><title>Hand2Font - Complete Design Class Diagram</title><defs/><g><g class="title" data-source-line="26"><text fill="#000000" font-family="sans-serif" font-size="13.5625" font-weight="bold" lengthAdjust="spacing" textLength="287.7594" x="1025.4015" y="24.3228">Hand2Font - Complete Design Class Diagram</text></g><!--cluster com--><g class="cluster" data-qualified-name="com" data-source-line="32" id="ent0004"><path d="M8.2344,44.1954 L35.0978,44.1954 A3.6328,3.6328 0 0 1 37.5197,46.6173 L44.3009,66.7586 L2342.9219,66.7586 A2.4219,2.4219 0 0 1 2345.3438,69.1805 L2345.3438,595.8986 A2.4219,2.4219 0 0 1 2342.9219,598.3204 L8.2344,598.3204 A2.4219,2.4219 0 0 1 5.8125,595.8986 L5.8125,46.6173 A2.4219,2.4219 0 0 1 8.2344,44.1954" fill="#F9F9F9" style="stroke:#999999;stroke-width:1.4531;"/><line style="stroke:#999999;stroke-width:1.4531;" x1="5.8125" x2="44.3009" y1="66.7586" y2="66.7586"/><text fill="#000000" font-family="sans-serif" font-size="12.5938" font-weight="bold" lengthAdjust="spacing" textLength="25.8947" x="9.6875" y="59.7229">com</text></g><!--cluster hand2font--><g class="cluster" data-qualified-name="com.hand2font" data-source-line="32" id="ent0005"><path d="M31.4844,86.8204 L91.886,86.8204 A3.6328,3.6328 0 0 1 94.3079,89.2423 L101.0892,109.3836 L2319.6719,109.3836 A2.4219,2.4219 0 0 1 2322.0938,111.8055 L2322.0938,572.6486 A2.4219,2.4219 0 0 1 2319.6719,575.0704 L31.4844,575.0704 A2.4219,2.4219 0 0 1 29.0625,572.6486 L29.0625,89.2423 A2.4219,2.4219 0 0 1 31.4844,86.8204" fill="#F9F9F9" style="stroke:#999999;stroke-width:1.4531;"/><line style="stroke:#999999;stroke-width:1.4531;" x1="29.0625" x2="101.0892" y1="109.3836" y2="109.3836"/><text fill="#000000" font-family="sans-serif" font-size="12.5938" font-weight="bold" lengthAdjust="spacing" textLength="59.4329" x="32.9375" y="102.3479">hand2font</text></g><!--cluster config--><g class="cluster" data-qualified-name="com.hand2font.config" data-source-line="31" id="ent0002"><path d="M1885.6719,249.5704 L1924.4157,249.5704 A3.6328,3.6328 0 0 1 1926.8376,251.9923 L1933.6189,272.1336 L2296.4219,272.1336 A2.4219,2.4219 0 0 1 2298.8438,274.5555 L2298.8438,549.3986 A2.4219,2.4219 0 0 1 2296.4219,551.8204 L1885.6719,551.8204 A2.4219,2.4219 0 0 1 1883.25,549.3986 L1883.25,251.9923 A2.4219,2.4219 0 0 1 1885.6719,249.5704" fill="#F9F9F9" style="stroke:#999999;stroke-width:1.4531;"/><line style="stroke:#999999;stroke-width:1.4531;" x1="1883.25" x2="1933.6189" y1="272.1336" y2="272.1336"/><text fill="#000000" font-family="sans-serif" font-size="12.5938" font-weight="bold" lengthAdjust="spacing" textLength="37.7751" x="1887.125" y="265.0979">config</text></g><!--cluster model--><g class="cluster" data-qualified-name="com.hand2font.model" data-source-line="42" id="ent0010"><path d="M1449.7344,129.4454 L1487.7895,129.4454 A3.6328,3.6328 0 0 1 1490.2114,131.8673 L1496.9926,152.0086 L1857.5781,152.0086 A2.4219,2.4219 0 0 1 1860,154.4305 L1860,464.1486 A2.4219,2.4219 0 0 1 1857.5781,466.5704 L1449.7344,466.5704 A2.4219,2.4219 0 0 1 1447.3125,464.1486 L1447.3125,131.8673 A2.4219,2.4219 0 0 1 1449.7344,129.4454" fill="#F9F9F9" style="stroke:#999999;stroke-width:1.4531;"/><line style="stroke:#999999;stroke-width:1.4531;" x1="1447.3125" x2="1496.9926" y1="152.0086" y2="152.0086"/><text fill="#000000" font-family="sans-serif" font-size="12.5938" font-weight="bold" lengthAdjust="spacing" textLength="37.0864" x="1451.1875" y="144.9729">model</text></g><!--cluster dto--><g class="cluster" data-qualified-name="com.hand2font.dto" data-source-line="56" id="ent0019"><path d="M54.7344,369.6954 L75.2825,369.6954 A3.6328,3.6328 0 0 1 77.7043,372.1173 L84.4856,392.2586 L327.9219,392.2586 A2.4219,2.4219 0 0 1 330.3438,394.6805 L330.3438,464.1486 A2.4219,2.4219 0 0 1 327.9219,466.5704 L54.7344,466.5704 A2.4219,2.4219 0 0 1 52.3125,464.1486 L52.3125,372.1173 A2.4219,2.4219 0 0 1 54.7344,369.6954" fill="#F9F9F9" style="stroke:#999999;stroke-width:1.4531;"/><line style="stroke:#999999;stroke-width:1.4531;" x1="52.3125" x2="84.4856" y1="392.2586" y2="392.2586"/><text fill="#000000" font-family="sans-serif" font-size="12.5938" font-weight="bold" lengthAdjust="spacing" textLength="19.5793" x="56.1875" y="385.2229">dto</text></g><!--cluster repository--><g class="cluster" data-qualified-name="com.hand2font.repository" data-source-line="64" id="ent0022"><path d="M356.0156,369.6954 L418.5695,369.6954 A3.6328,3.6328 0 0 1 420.9914,372.1173 L427.7727,392.2586 L1421.6406,392.2586 A2.4219,2.4219 0 0 1 1424.0625,394.6805 L1424.0625,464.1486 A2.4219,2.4219 0 0 1 1421.6406,466.5704 L356.0156,466.5704 A2.4219,2.4219 0 0 1 353.5938,464.1486 L353.5938,372.1173 A2.4219,2.4219 0 0 1 356.0156,369.6954" fill="#F9F9F9" style="stroke:#999999;stroke-width:1.4531;"/><line style="stroke:#999999;stroke-width:1.4531;" x1="353.5938" x2="427.7727" y1="392.2586" y2="392.2586"/><text fill="#000000" font-family="sans-serif" font-size="12.5938" font-weight="bold" lengthAdjust="spacing" textLength="61.5852" x="357.4688" y="385.2229">repository</text></g><!--cluster service--><g class="cluster" data-qualified-name="com.hand2font.service" data-source-line="76" id="ent0029"><path d="M469.3594,249.5704 L513.7483,249.5704 A3.6328,3.6328 0 0 1 516.1702,251.9923 L522.9514,272.1336 L712.5156,272.1336 A2.4219,2.4219 0 0 1 714.9375,274.5555 L714.9375,344.0236 A2.4219,2.4219 0 0 1 712.5156,346.4454 L469.3594,346.4454 A2.4219,2.4219 0 0 1 466.9375,344.0236 L466.9375,251.9923 A2.4219,2.4219 0 0 1 469.3594,249.5704" fill="#F9F9F9" style="stroke:#999999;stroke-width:1.4531;"/><line style="stroke:#999999;stroke-width:1.4531;" x1="466.9375" x2="522.9514" y1="272.1336" y2="272.1336"/><text fill="#000000" font-family="sans-serif" font-size="12.5938" font-weight="bold" lengthAdjust="spacing" textLength="43.4202" x="470.8125" y="265.0979">service</text></g><!--cluster controllers--><g class="cluster" data-qualified-name="com.hand2font.controllers" data-source-line="84" id="ent0032"><path d="M458.7031,129.4454 L524.756,129.4454 A3.6328,3.6328 0 0 1 527.1779,131.8673 L533.9591,152.0086 L723.1719,152.0086 A2.4219,2.4219 0 0 1 725.5938,154.4305 L725.5938,223.8986 A2.4219,2.4219 0 0 1 723.1719,226.3204 L458.7031,226.3204 A2.4219,2.4219 0 0 1 456.2813,223.8986 L456.2813,131.8673 A2.4219,2.4219 0 0 1 458.7031,129.4454" fill="#F9F9F9" style="stroke:#999999;stroke-width:1.4531;"/><line style="stroke:#999999;stroke-width:1.4531;" x1="456.2813" x2="533.9591" y1="152.0086" y2="152.0086"/><text fill="#000000" font-family="sans-serif" font-size="12.5938" font-weight="bold" lengthAdjust="spacing" textLength="65.0841" x="460.1563" y="144.9729">controllers</text></g><!--class JwtUtil--><g class="entity" data-qualified-name="com.hand2font.config.JwtUtil" data-source-line="32" id="ent0003"><rect fill="#FFFFFF" height="46.5" rx="2.4219" ry="2.4219" style="stroke:#333333;stroke-width:0.4844;" width="62.3756" x="2182.5938" y="489.8204"/><ellipse cx="2197.125" cy="505.3204" fill="#ADD1B2" rx="10.6563" ry="10.6563" style="stroke:#181818;stroke-width:0.9688;"/><path d="M2199.8042,501.3243 Q2199.9556,501.1124 2200.1372,501.0065 Q2200.3188,500.9005 2200.5308,500.9005 Q2200.894,500.9005 2201.1211,501.1578 Q2201.3481,501.4 2201.3481,501.9904 L2201.3481,503.3981 Q2201.3481,503.9884 2201.1211,504.2457 Q2200.894,504.5031 2200.5308,504.5031 Q2200.1978,504.5031 2200.001,504.3063 Q2199.8042,504.1246 2199.6982,503.6251 Q2199.6528,503.277 2199.4712,503.0953 Q2199.1533,502.7321 2198.563,502.5201 Q2197.9727,502.3082 2197.3672,502.3082 Q2196.6255,502.3082 2196.0049,502.6261 Q2195.3994,502.944 2194.915,503.6705 Q2194.4458,504.3971 2194.4458,505.3961 L2194.4458,506.4557 Q2194.4458,507.6515 2195.3086,508.4537 Q2196.1714,509.2408 2197.7153,509.2408 Q2198.6235,509.2408 2199.2593,508.9987 Q2199.6377,508.8473 2200.0464,508.4235 Q2200.3037,508.1661 2200.4399,508.0905 Q2200.5913,508.0148 2200.7881,508.0148 Q2201.106,508.0148 2201.3481,508.2721 Q2201.6055,508.5143 2201.6055,508.8473 Q2201.6055,509.1803 2201.2725,509.5739 Q2200.7881,510.1339 2200.0161,510.4518 Q2198.9717,510.8907 2197.7153,510.8907 Q2196.2471,510.8907 2195.0815,510.2853 Q2194.1279,509.8009 2193.4619,508.7716 Q2192.7959,507.7272 2192.7959,506.486 L2192.7959,505.3658 Q2192.7959,504.0792 2193.3862,502.9742 Q2193.9917,501.8541 2195.0513,501.2638 Q2196.1108,500.6583 2197.3066,500.6583 Q2198.0181,500.6583 2198.6387,500.8248 Q2199.2744,500.9762 2199.8042,501.3243 Z " fill="#000000"/><text fill="#000000" font-family="'Arial'" font-size="10.6563" lengthAdjust="spacing" textLength="31.3756" x="2210.6875" y="509.0147">JwtUtil</text><line style="stroke:#333333;stroke-width:0.4844;" x1="2183.5625" x2="2244.0006" y1="520.8204" y2="520.8204"/><line style="stroke:#333333;stroke-width:0.4844;" x1="2183.5625" x2="2244.0006" y1="528.5704" y2="528.5704"/></g><!--class JwtAuthenticationFilter--><g class="entity" data-qualified-name="com.hand2font.config.JwtAuthenticationFilter" data-source-line="33" id="ent0006"><rect fill="#FFFFFF" height="46.5" rx="2.4219" ry="2.4219" style="stroke:#333333;stroke-width:0.4844;" width="138.2025" x="2144.3281" y="404.5704"/><ellipse cx="2158.8594" cy="420.0704" fill="#ADD1B2" rx="10.6563" ry="10.6563" style="stroke:#181818;stroke-width:0.9688;"/><path d="M2161.5386,416.0743 Q2161.6899,415.8624 2161.8716,415.7565 Q2162.0532,415.6505 2162.2651,415.6505 Q2162.6284,415.6505 2162.8555,415.9078 Q2163.0825,416.15 2163.0825,416.7404 L2163.0825,418.1481 Q2163.0825,418.7384 2162.8555,418.9957 Q2162.6284,419.2531 2162.2651,419.2531 Q2161.9321,419.2531 2161.7354,419.0563 Q2161.5386,418.8746 2161.4326,418.3751 Q2161.3872,418.027 2161.2056,417.8453 Q2160.8877,417.4821 2160.2974,417.2701 Q2159.707,417.0582 2159.1016,417.0582 Q2158.3599,417.0582 2157.7393,417.3761 Q2157.1338,417.694 2156.6494,418.4205 Q2156.1802,419.1471 2156.1802,420.1461 L2156.1802,421.2057 Q2156.1802,422.4015 2157.043,423.2037 Q2157.9058,423.9908 2159.4497,423.9908 Q2160.3579,423.9908 2160.9937,423.7487 Q2161.3721,423.5973 2161.7808,423.1735 Q2162.0381,422.9161 2162.1743,422.8405 Q2162.3257,422.7648 2162.5225,422.7648 Q2162.8403,422.7648 2163.0825,423.0221 Q2163.3398,423.2643 2163.3398,423.5973 Q2163.3398,423.9303 2163.0068,424.3239 Q2162.5225,424.8839 2161.7505,425.2018 Q2160.7061,425.6407 2159.4497,425.6407 Q2157.9814,425.6407 2156.8159,425.0353 Q2155.8623,424.5509 2155.1963,423.5216 Q2154.5303,422.4772 2154.5303,421.236 L2154.5303,420.1158 Q2154.5303,418.8292 2155.1206,417.7242 Q2155.7261,416.6041 2156.7856,416.0138 Q2157.8452,415.4083 2159.041,415.4083 Q2159.7524,415.4083 2160.373,415.5748 Q2161.0088,415.7262 2161.5386,416.0743 Z " fill="#000000"/><text fill="#000000" font-family="'Arial'" font-size="10.6563" lengthAdjust="spacing" textLength="107.2025" x="2172.4219" y="423.7647">JwtAuthenticationFilter</text><line style="stroke:#333333;stroke-width:0.4844;" x1="2145.2969" x2="2281.5619" y1="435.5704" y2="435.5704"/><line style="stroke:#333333;stroke-width:0.4844;" x1="2145.2969" x2="2281.5619" y1="443.3204" y2="443.3204"/></g><!--class SecurityConfig--><g class="entity" data-qualified-name="com.hand2font.config.SecurityConfig" data-source-line="34" id="ent0007"><rect fill="#FFFFFF" height="46.5" rx="2.4219" ry="2.4219" style="stroke:#333333;stroke-width:0.4844;" width="100.2968" x="2182.5938" y="284.4454"/><ellipse cx="2197.125" cy="299.9454" fill="#ADD1B2" rx="10.6563" ry="10.6563" style="stroke:#181818;stroke-width:0.9688;"/><path d="M2199.8042,295.9493 Q2199.9556,295.7374 2200.1372,295.6315 Q2200.3188,295.5255 2200.5308,295.5255 Q2200.894,295.5255 2201.1211,295.7828 Q2201.3481,296.025 2201.3481,296.6154 L2201.3481,298.0231 Q2201.3481,298.6134 2201.1211,298.8707 Q2200.894,299.1281 2200.5308,299.1281 Q2200.1978,299.1281 2200.001,298.9313 Q2199.8042,298.7496 2199.6982,298.2501 Q2199.6528,297.902 2199.4712,297.7203 Q2199.1533,297.3571 2198.563,297.1451 Q2197.9727,296.9332 2197.3672,296.9332 Q2196.6255,296.9332 2196.0049,297.2511 Q2195.3994,297.569 2194.915,298.2955 Q2194.4458,299.0221 2194.4458,300.0211 L2194.4458,301.0807 Q2194.4458,302.2765 2195.3086,303.0787 Q2196.1714,303.8658 2197.7153,303.8658 Q2198.6235,303.8658 2199.2593,303.6237 Q2199.6377,303.4723 2200.0464,303.0485 Q2200.3037,302.7911 2200.4399,302.7155 Q2200.5913,302.6398 2200.7881,302.6398 Q2201.106,302.6398 2201.3481,302.8971 Q2201.6055,303.1393 2201.6055,303.4723 Q2201.6055,303.8053 2201.2725,304.1989 Q2200.7881,304.7589 2200.0161,305.0768 Q2198.9717,305.5157 2197.7153,305.5157 Q2196.2471,305.5157 2195.0815,304.9103 Q2194.1279,304.4259 2193.4619,303.3966 Q2192.7959,302.3522 2192.7959,301.111 L2192.7959,299.9908 Q2192.7959,298.7042 2193.3862,297.5992 Q2193.9917,296.4791 2195.0513,295.8888 Q2196.1108,295.2833 2197.3066,295.2833 Q2198.0181,295.2833 2198.6387,295.4498 Q2199.2744,295.6012 2199.8042,295.9493 Z " fill="#000000"/><text fill="#000000" font-family="'Arial'" font-size="10.6563" lengthAdjust="spacing" textLength="69.2968" x="2210.6875" y="303.6397">SecurityConfig</text><line style="stroke:#333333;stroke-width:0.4844;" x1="2183.5625" x2="2281.9218" y1="315.4454" y2="315.4454"/><line style="stroke:#333333;stroke-width:0.4844;" x1="2183.5625" x2="2281.9218" y1="323.1954" y2="323.1954"/></g><!--class RabbitMQConfig--><g class="entity" data-qualified-name="com.hand2font.config.RabbitMQConfig" data-source-line="35" id="ent0008"><rect fill="#FFFFFF" height="46.5" rx="2.4219" ry="2.4219" style="stroke:#333333;stroke-width:0.4844;" width="109.772" x="2033.8906" y="284.4454"/><ellipse cx="2048.4219" cy="299.9454" fill="#ADD1B2" rx="10.6563" ry="10.6563" style="stroke:#181818;stroke-width:0.9688;"/><path d="M2051.1011,295.9493 Q2051.2524,295.7374 2051.4341,295.6315 Q2051.6157,295.5255 2051.8276,295.5255 Q2052.1909,295.5255 2052.418,295.7828 Q2052.645,296.025 2052.645,296.6154 L2052.645,298.0231 Q2052.645,298.6134 2052.418,298.8707 Q2052.1909,299.1281 2051.8276,299.1281 Q2051.4946,299.1281 2051.2979,298.9313 Q2051.1011,298.7496 2050.9951,298.2501 Q2050.9497,297.902 2050.7681,297.7203 Q2050.4502,297.3571 2049.8599,297.1451 Q2049.2695,296.9332 2048.6641,296.9332 Q2047.9224,296.9332 2047.3018,297.2511 Q2046.6963,297.569 2046.2119,298.2955 Q2045.7427,299.0221 2045.7427,300.0211 L2045.7427,301.0807 Q2045.7427,302.2765 2046.6055,303.0787 Q2047.4683,303.8658 2049.0122,303.8658 Q2049.9204,303.8658 2050.5562,303.6237 Q2050.9346,303.4723 2051.3433,303.0485 Q2051.6006,302.7911 2051.7368,302.7155 Q2051.8882,302.6398 2052.085,302.6398 Q2052.4028,302.6398 2052.645,302.8971 Q2052.9023,303.1393 2052.9023,303.4723 Q2052.9023,303.8053 2052.5693,304.1989 Q2052.085,304.7589 2051.313,305.0768 Q2050.2686,305.5157 2049.0122,305.5157 Q2047.5439,305.5157 2046.3784,304.9103 Q2045.4248,304.4259 2044.7588,303.3966 Q2044.0928,302.3522 2044.0928,301.111 L2044.0928,299.9908 Q2044.0928,298.7042 2044.6831,297.5992 Q2045.2886,296.4791 2046.3481,295.8888 Q2047.4077,295.2833 2048.6035,295.2833 Q2049.3149,295.2833 2049.9355,295.4498 Q2050.5713,295.6012 2051.1011,295.9493 Z " fill="#000000"/><text fill="#000000" font-family="'Arial'" font-size="10.6563" lengthAdjust="spacing" textLength="78.772" x="2061.9844" y="303.6397">RabbitMQConfig</text><line style="stroke:#333333;stroke-width:0.4844;" x1="2034.8594" x2="2142.6938" y1="315.4454" y2="315.4454"/><line style="stroke:#333333;stroke-width:0.4844;" x1="2034.8594" x2="2142.6938" y1="323.1954" y2="323.1954"/></g><!--class DataInitializer--><g class="entity" data-qualified-name="com.hand2font.config.DataInitializer" data-source-line="36" id="ent0009"><rect fill="#FFFFFF" height="46.5" rx="2.4219" ry="2.4219" style="stroke:#333333;stroke-width:0.4844;" width="95.5567" x="1899.2344" y="284.4454"/><ellipse cx="1913.7656" cy="299.9454" fill="#ADD1B2" rx="10.6563" ry="10.6563" style="stroke:#181818;stroke-width:0.9688;"/><path d="M1916.4448,295.9493 Q1916.5962,295.7374 1916.7778,295.6315 Q1916.9595,295.5255 1917.1714,295.5255 Q1917.5347,295.5255 1917.7617,295.7828 Q1917.9888,296.025 1917.9888,296.6154 L1917.9888,298.0231 Q1917.9888,298.6134 1917.7617,298.8707 Q1917.5347,299.1281 1917.1714,299.1281 Q1916.8384,299.1281 1916.6416,298.9313 Q1916.4448,298.7496 1916.3389,298.2501 Q1916.2935,297.902 1916.1118,297.7203 Q1915.7939,297.3571 1915.2036,297.1451 Q1914.6133,296.9332 1914.0078,296.9332 Q1913.2661,296.9332 1912.6455,297.2511 Q1912.04,297.569 1911.5557,298.2955 Q1911.0864,299.0221 1911.0864,300.0211 L1911.0864,301.0807 Q1911.0864,302.2765 1911.9492,303.0787 Q1912.812,303.8658 1914.356,303.8658 Q1915.2642,303.8658 1915.8999,303.6237 Q1916.2783,303.4723 1916.687,303.0485 Q1916.9443,302.7911 1917.0806,302.7155 Q1917.2319,302.6398 1917.4287,302.6398 Q1917.7466,302.6398 1917.9888,302.8971 Q1918.2461,303.1393 1918.2461,303.4723 Q1918.2461,303.8053 1917.9131,304.1989 Q1917.4287,304.7589 1916.6567,305.0768 Q1915.6123,305.5157 1914.356,305.5157 Q1912.8877,305.5157 1911.7222,304.9103 Q1910.7686,304.4259 1910.1025,303.3966 Q1909.4365,302.3522 1909.4365,301.111 L1909.4365,299.9908 Q1909.4365,298.7042 1910.0269,297.5992 Q1910.6323,296.4791 1911.6919,295.8888 Q1912.7515,295.2833 1913.9473,295.2833 Q1914.6587,295.2833 1915.2793,295.4498 Q1915.915,295.6012 1916.4448,295.9493 Z " fill="#000000"/><text fill="#000000" font-family="'Arial'" font-size="10.6563" lengthAdjust="spacing" textLength="64.5567" x="1927.3281" y="303.6397">DataInitializer</text><line style="stroke:#333333;stroke-width:0.4844;" x1="1900.2031" x2="1993.8223" y1="315.4454" y2="315.4454"/><line style="stroke:#333333;stroke-width:0.4844;" x1="1900.2031" x2="1993.8223" y1="323.1954" y2="323.1954"/></g><!--class User--><g class="entity" data-qualified-name="com.hand2font.model.User" data-source-line="43" id="ent0011"><rect fill="#FFFFFF" height="46.5" rx="2.4219" ry="2.4219" style="stroke:#333333;stroke-width:0.4844;" width="53.4988" x="1488.4844" y="164.3204"/><ellipse cx="1503.0156" cy="179.8204" fill="#ADD1B2" rx="10.6563" ry="10.6563" style="stroke:#181818;stroke-width:0.9688;"/><path d="M1505.6948,175.8243 Q1505.8462,175.6124 1506.0278,175.5065 Q1506.2095,175.4005 1506.4214,175.4005 Q1506.7847,175.4005 1507.0117,175.6578 Q1507.2388,175.9 1507.2388,176.4904 L1507.2388,177.8981 Q1507.2388,178.4884 1507.0117,178.7457 Q1506.7847,179.0031 1506.4214,179.0031 Q1506.0884,179.0031 1505.8916,178.8063 Q1505.6948,178.6246 1505.5889,178.1251 Q1505.5435,177.777 1505.3618,177.5953 Q1505.0439,177.2321 1504.4536,177.0201 Q1503.8633,176.8082 1503.2578,176.8082 Q1502.5161,176.8082 1501.8955,177.1261 Q1501.29,177.444 1500.8057,178.1705 Q1500.3364,178.8971 1500.3364,179.8961 L1500.3364,180.9557 Q1500.3364,182.1515 1501.1992,182.9537 Q1502.062,183.7408 1503.606,183.7408 Q1504.5142,183.7408 1505.1499,183.4987 Q1505.5283,183.3473 1505.937,182.9235 Q1506.1943,182.6661 1506.3306,182.5905 Q1506.4819,182.5148 1506.6787,182.5148 Q1506.9966,182.5148 1507.2388,182.7721 Q1507.4961,183.0143 1507.4961,183.3473 Q1507.4961,183.6803 1507.1631,184.0739 Q1506.6787,184.6339 1505.9067,184.9518 Q1504.8623,185.3907 1503.606,185.3907 Q1502.1377,185.3907 1500.9722,184.7853 Q1500.0186,184.3009 1499.3525,183.2716 Q1498.6865,182.2272 1498.6865,180.986 L1498.6865,179.8658 Q1498.6865,178.5792 1499.2769,177.4742 Q1499.8823,176.3541 1500.9419,175.7638 Q1502.0015,175.1583 1503.1973,175.1583 Q1503.9087,175.1583 1504.5293,175.3248 Q1505.165,175.4762 1505.6948,175.8243 Z " fill="#000000"/><text fill="#000000" font-family="'Arial'" font-size="10.6563" lengthAdjust="spacing" textLength="22.4988" x="1516.5781" y="183.5147">User</text><line style="stroke:#333333;stroke-width:0.4844;" x1="1489.4531" x2="1541.0145" y1="195.3204" y2="195.3204"/><line style="stroke:#333333;stroke-width:0.4844;" x1="1489.4531" x2="1541.0145" y1="203.0704" y2="203.0704"/></g><!--class Font--><g class="entity" data-qualified-name="com.hand2font.model.Font" data-source-line="44" id="ent0012"><rect fill="#FFFFFF" height="46.5" rx="2.4219" ry="2.4219" style="stroke:#333333;stroke-width:0.4844;" width="52.3229" x="1581" y="164.3204"/><ellipse cx="1595.5313" cy="179.8204" fill="#ADD1B2" rx="10.6563" ry="10.6563" style="stroke:#181818;stroke-width:0.9688;"/><path d="M1598.2104,175.8243 Q1598.3618,175.6124 1598.5435,175.5065 Q1598.7251,175.4005 1598.937,175.4005 Q1599.3003,175.4005 1599.5273,175.6578 Q1599.7544,175.9 1599.7544,176.4904 L1599.7544,177.8981 Q1599.7544,178.4884 1599.5273,178.7457 Q1599.3003,179.0031 1598.937,179.0031 Q1598.604,179.0031 1598.4072,178.8063 Q1598.2104,178.6246 1598.1045,178.1251 Q1598.0591,177.777 1597.8774,177.5953 Q1597.5596,177.2321 1596.9692,177.0201 Q1596.3789,176.8082 1595.7734,176.8082 Q1595.0317,176.8082 1594.4111,177.1261 Q1593.8057,177.444 1593.3213,178.1705 Q1592.8521,178.8971 1592.8521,179.8961 L1592.8521,180.9557 Q1592.8521,182.1515 1593.7148,182.9537 Q1594.5776,183.7408 1596.1216,183.7408 Q1597.0298,183.7408 1597.6655,183.4987 Q1598.0439,183.3473 1598.4526,182.9235 Q1598.71,182.6661 1598.8462,182.5905 Q1598.9976,182.5148 1599.1943,182.5148 Q1599.5122,182.5148 1599.7544,182.7721 Q1600.0117,183.0143 1600.0117,183.3473 Q1600.0117,183.6803 1599.6787,184.0739 Q1599.1943,184.6339 1598.4224,184.9518 Q1597.3779,185.3907 1596.1216,185.3907 Q1594.6533,185.3907 1593.4878,184.7853 Q1592.5342,184.3009 1591.8682,183.2716 Q1591.2021,182.2272 1591.2021,180.986 L1591.2021,179.8658 Q1591.2021,178.5792 1591.7925,177.4742 Q1592.3979,176.3541 1593.4575,175.7638 Q1594.5171,175.1583 1595.7129,175.1583 Q1596.4243,175.1583 1597.0449,175.3248 Q1597.6807,175.4762 1598.2104,175.8243 Z " fill="#000000"/><text fill="#000000" font-family="'Arial'" font-size="10.6563" lengthAdjust="spacing" textLength="21.3229" x="1609.0938" y="183.5147">Font</text><line style="stroke:#333333;stroke-width:0.4844;" x1="1581.9688" x2="1632.3542" y1="195.3204" y2="195.3204"/><line style="stroke:#333333;stroke-width:0.4844;" x1="1581.9688" x2="1632.3542" y1="203.0704" y2="203.0704"/></g><!--class PermissionedPeople--><g class="entity" data-qualified-name="com.hand2font.model.PermissionedPeople" data-source-line="45" id="ent0013"><rect fill="#FFFFFF" height="46.5" rx="2.4219" ry="2.4219" style="stroke:#333333;stroke-width:0.4844;" width="128.7378" x="1672.5469" y="164.3204"/><ellipse cx="1687.0781" cy="179.8204" fill="#ADD1B2" rx="10.6563" ry="10.6563" style="stroke:#181818;stroke-width:0.9688;"/><path d="M1689.7573,175.8243 Q1689.9087,175.6124 1690.0903,175.5065 Q1690.272,175.4005 1690.4839,175.4005 Q1690.8472,175.4005 1691.0742,175.6578 Q1691.3013,175.9 1691.3013,176.4904 L1691.3013,177.8981 Q1691.3013,178.4884 1691.0742,178.7457 Q1690.8472,179.0031 1690.4839,179.0031 Q1690.1509,179.0031 1689.9541,178.8063 Q1689.7573,178.6246 1689.6514,178.1251 Q1689.606,177.777 1689.4243,177.5953 Q1689.1064,177.2321 1688.5161,177.0201 Q1687.9258,176.8082 1687.3203,176.8082 Q1686.5786,176.8082 1685.958,177.1261 Q1685.3525,177.444 1684.8682,178.1705 Q1684.3989,178.8971 1684.3989,179.8961 L1684.3989,180.9557 Q1684.3989,182.1515 1685.2617,182.9537 Q1686.1245,183.7408 1687.6685,183.7408 Q1688.5767,183.7408 1689.2124,183.4987 Q1689.5908,183.3473 1689.9995,182.9235 Q1690.2568,182.6661 1690.3931,182.5905 Q1690.5444,182.5148 1690.7412,182.5148 Q1691.0591,182.5148 1691.3013,182.7721 Q1691.5586,183.0143 1691.5586,183.3473 Q1691.5586,183.6803 1691.2256,184.0739 Q1690.7412,184.6339 1689.9692,184.9518 Q1688.9248,185.3907 1687.6685,185.3907 Q1686.2002,185.3907 1685.0347,184.7853 Q1684.0811,184.3009 1683.415,183.2716 Q1682.749,182.2272 1682.749,180.986 L1682.749,179.8658 Q1682.749,178.5792 1683.3394,177.4742 Q1683.9448,176.3541 1685.0044,175.7638 Q1686.064,175.1583 1687.2598,175.1583 Q1687.9712,175.1583 1688.5918,175.3248 Q1689.2275,175.4762 1689.7573,175.8243 Z " fill="#000000"/><text fill="#000000" font-family="'Arial'" font-size="10.6563" lengthAdjust="spacing" textLength="97.7378" x="1700.6406" y="183.5147">PermissionedPeople</text><line style="stroke:#333333;stroke-width:0.4844;" x1="1673.5156" x2="1800.3159" y1="195.3204" y2="195.3204"/><line style="stroke:#333333;stroke-width:0.4844;" x1="1673.5156" x2="1800.3159" y1="203.0704" y2="203.0704"/></g><!--class GeometricStyle--><g class="entity" data-qualified-name="com.hand2font.model.GeometricStyle" data-source-line="46" id="ent0014"><rect fill="#FFFFFF" height="46.5" rx="2.4219" ry="2.4219" style="stroke:#333333;stroke-width:0.4844;" width="103.8403" x="1463.2969" y="284.4454"/><ellipse cx="1477.8281" cy="299.9454" fill="#ADD1B2" rx="10.6563" ry="10.6563" style="stroke:#181818;stroke-width:0.9688;"/><path d="M1480.5073,295.9493 Q1480.6587,295.7374 1480.8403,295.6315 Q1481.022,295.5255 1481.2339,295.5255 Q1481.5972,295.5255 1481.8242,295.7828 Q1482.0513,296.025 1482.0513,296.6154 L1482.0513,298.0231 Q1482.0513,298.6134 1481.8242,298.8707 Q1481.5972,299.1281 1481.2339,299.1281 Q1480.9009,299.1281 1480.7041,298.9313 Q1480.5073,298.7496 1480.4014,298.2501 Q1480.356,297.902 1480.1743,297.7203 Q1479.8564,297.3571 1479.2661,297.1451 Q1478.6758,296.9332 1478.0703,296.9332 Q1477.3286,296.9332 1476.708,297.2511 Q1476.1025,297.569 1475.6182,298.2955 Q1475.1489,299.0221 1475.1489,300.0211 L1475.1489,301.0807 Q1475.1489,302.2765 1476.0117,303.0787 Q1476.8745,303.8658 1478.4185,303.8658 Q1479.3267,303.8658 1479.9624,303.6237 Q1480.3408,303.4723 1480.7495,303.0485 Q1481.0068,302.7911 1481.1431,302.7155 Q1481.2944,302.6398 1481.4912,302.6398 Q1481.8091,302.6398 1482.0513,302.8971 Q1482.3086,303.1393 1482.3086,303.4723 Q1482.3086,303.8053 1481.9756,304.1989 Q1481.4912,304.7589 1480.7192,305.0768 Q1479.6748,305.5157 1478.4185,305.5157 Q1476.9502,305.5157 1475.7847,304.9103 Q1474.8311,304.4259 1474.165,303.3966 Q1473.499,302.3522 1473.499,301.111 L1473.499,299.9908 Q1473.499,298.7042 1474.0894,297.5992 Q1474.6948,296.4791 1475.7544,295.8888 Q1476.814,295.2833 1478.0098,295.2833 Q1478.7212,295.2833 1479.3418,295.4498 Q1479.9775,295.6012 1480.5073,295.9493 Z " fill="#000000"/><text fill="#000000" font-family="'Arial'" font-size="10.6563" lengthAdjust="spacing" textLength="72.8403" x="1491.3906" y="303.6397">GeometricStyle</text><line style="stroke:#333333;stroke-width:0.4844;" x1="1464.2656" x2="1566.1684" y1="315.4454" y2="315.4454"/><line style="stroke:#333333;stroke-width:0.4844;" x1="1464.2656" x2="1566.1684" y1="323.1954" y2="323.1954"/></g><!--class ContentStyle--><g class="entity" data-qualified-name="com.hand2font.model.ContentStyle" data-source-line="47" id="ent0015"><rect fill="#FFFFFF" height="46.5" rx="2.4219" ry="2.4219" style="stroke:#333333;stroke-width:0.4844;" width="92.0133" x="1605.7031" y="284.4454"/><ellipse cx="1620.2344" cy="299.9454" fill="#ADD1B2" rx="10.6563" ry="10.6563" style="stroke:#181818;stroke-width:0.9688;"/><path d="M1622.9136,295.9493 Q1623.0649,295.7374 1623.2466,295.6315 Q1623.4282,295.5255 1623.6401,295.5255 Q1624.0034,295.5255 1624.2305,295.7828 Q1624.4575,296.025 1624.4575,296.6154 L1624.4575,298.0231 Q1624.4575,298.6134 1624.2305,298.8707 Q1624.0034,299.1281 1623.6401,299.1281 Q1623.3071,299.1281 1623.1104,298.9313 Q1622.9136,298.7496 1622.8076,298.2501 Q1622.7622,297.902 1622.5806,297.7203 Q1622.2627,297.3571 1621.6724,297.1451 Q1621.082,296.9332 1620.4766,296.9332 Q1619.7349,296.9332 1619.1143,297.2511 Q1618.5088,297.569 1618.0244,298.2955 Q1617.5552,299.0221 1617.5552,300.0211 L1617.5552,301.0807 Q1617.5552,302.2765 1618.418,303.0787 Q1619.2808,303.8658 1620.8247,303.8658 Q1621.7329,303.8658 1622.3687,303.6237 Q1622.7471,303.4723 1623.1558,303.0485 Q1623.4131,302.7911 1623.5493,302.7155 Q1623.7007,302.6398 1623.8975,302.6398 Q1624.2153,302.6398 1624.4575,302.8971 Q1624.7148,303.1393 1624.7148,303.4723 Q1624.7148,303.8053 1624.3818,304.1989 Q1623.8975,304.7589 1623.1255,305.0768 Q1622.0811,305.5157 1620.8247,305.5157 Q1619.3564,305.5157 1618.1909,304.9103 Q1617.2373,304.4259 1616.5713,303.3966 Q1615.9053,302.3522 1615.9053,301.111 L1615.9053,299.9908 Q1615.9053,298.7042 1616.4956,297.5992 Q1617.1011,296.4791 1618.1606,295.8888 Q1619.2202,295.2833 1620.416,295.2833 Q1621.1274,295.2833 1621.748,295.4498 Q1622.3838,295.6012 1622.9136,295.9493 Z " fill="#000000"/><text fill="#000000" font-family="'Arial'" font-size="10.6563" lengthAdjust="spacing" textLength="61.0133" x="1633.7969" y="303.6397">ContentStyle</text><line style="stroke:#333333;stroke-width:0.4844;" x1="1606.6719" x2="1696.7477" y1="315.4454" y2="315.4454"/><line style="stroke:#333333;stroke-width:0.4844;" x1="1606.6719" x2="1696.7477" y1="323.1954" y2="323.1954"/></g><!--class ExpressionStyle--><g class="entity" data-qualified-name="com.hand2font.model.ExpressionStyle" data-source-line="48" id="ent0016"><rect fill="#FFFFFF" height="46.5" rx="2.4219" ry="2.4219" style="stroke:#333333;stroke-width:0.4844;" width="107.4045" x="1736.4844" y="284.4454"/><ellipse cx="1751.0156" cy="299.9454" fill="#ADD1B2" rx="10.6563" ry="10.6563" style="stroke:#181818;stroke-width:0.9688;"/><path d="M1753.6948,295.9493 Q1753.8462,295.7374 1754.0278,295.6315 Q1754.2095,295.5255 1754.4214,295.5255 Q1754.7847,295.5255 1755.0117,295.7828 Q1755.2388,296.025 1755.2388,296.6154 L1755.2388,298.0231 Q1755.2388,298.6134 1755.0117,298.8707 Q1754.7847,299.1281 1754.4214,299.1281 Q1754.0884,299.1281 1753.8916,298.9313 Q1753.6948,298.7496 1753.5889,298.2501 Q1753.5435,297.902 1753.3618,297.7203 Q1753.0439,297.3571 1752.4536,297.1451 Q1751.8633,296.9332 1751.2578,296.9332 Q1750.5161,296.9332 1749.8955,297.2511 Q1749.29,297.569 1748.8057,298.2955 Q1748.3364,299.0221 1748.3364,300.0211 L1748.3364,301.0807 Q1748.3364,302.2765 1749.1992,303.0787 Q1750.062,303.8658 1751.606,303.8658 Q1752.5142,303.8658 1753.1499,303.6237 Q1753.5283,303.4723 1753.937,303.0485 Q1754.1943,302.7911 1754.3306,302.7155 Q1754.4819,302.6398 1754.6787,302.6398 Q1754.9966,302.6398 1755.2388,302.8971 Q1755.4961,303.1393 1755.4961,303.4723 Q1755.4961,303.8053 1755.1631,304.1989 Q1754.6787,304.7589 1753.9067,305.0768 Q1752.8623,305.5157 1751.606,305.5157 Q1750.1377,305.5157 1748.9722,304.9103 Q1748.0186,304.4259 1747.3525,303.3966 Q1746.6865,302.3522 1746.6865,301.111 L1746.6865,299.9908 Q1746.6865,298.7042 1747.2769,297.5992 Q1747.8823,296.4791 1748.9419,295.8888 Q1750.0015,295.2833 1751.1973,295.2833 Q1751.9087,295.2833 1752.5293,295.4498 Q1753.165,295.6012 1753.6948,295.9493 Z " fill="#000000"/><text fill="#000000" font-family="'Arial'" font-size="10.6563" lengthAdjust="spacing" textLength="76.4045" x="1764.5781" y="303.6397">ExpressionStyle</text><line style="stroke:#333333;stroke-width:0.4844;" x1="1737.4531" x2="1842.9201" y1="315.4454" y2="315.4454"/><line style="stroke:#333333;stroke-width:0.4844;" x1="1737.4531" x2="1842.9201" y1="323.1954" y2="323.1954"/></g><!--class FontStatus--><g class="entity" data-qualified-name="com.hand2font.model.FontStatus" data-source-line="49" id="ent0017"><rect fill="#FFFFFF" height="46.5" rx="2.4219" ry="2.4219" style="stroke:#333333;stroke-width:0.4844;" width="82.533" x="1473.9531" y="404.5704"/><ellipse cx="1488.4844" cy="420.0704" fill="#EB937F" rx="10.6563" ry="10.6563" style="stroke:#181818;stroke-width:0.9688;"/><path d="M1487.3794,420.8424 L1487.3794,423.2643 L1491.5723,423.2643 L1491.5723,422.3712 Q1491.5723,421.7809 1491.7993,421.5236 Q1492.0415,421.2662 1492.4048,421.2662 Q1492.7681,421.2662 1492.9951,421.5236 Q1493.2222,421.7809 1493.2222,422.3712 L1493.2222,424.9142 L1485.4722,424.9142 Q1484.8667,424.9142 1484.6094,424.6871 Q1484.3672,424.4601 1484.3672,424.0817 Q1484.3672,423.7184 1484.6245,423.4913 Q1484.8818,423.2643 1485.4722,423.2643 L1485.7295,423.2643 L1485.7295,416.816 L1485.4722,416.816 Q1484.8667,416.816 1484.6094,416.589 Q1484.3672,416.3619 1484.3672,415.9835 Q1484.3672,415.6202 1484.6094,415.3932 Q1484.8667,415.1661 1485.4722,415.1661 L1492.8589,415.1661 L1492.8589,417.6788 Q1492.8589,418.2692 1492.6318,418.5265 Q1492.4199,418.7687 1492.0415,418.7687 Q1491.6782,418.7687 1491.4512,418.5265 Q1491.2241,418.2692 1491.2241,417.6788 L1491.2241,416.816 L1487.3794,416.816 L1487.3794,419.1925 L1488.8174,419.1925 Q1488.8174,418.5568 1488.9385,418.3751 Q1489.1958,417.9816 1489.6499,417.9816 Q1490.0132,417.9816 1490.2402,418.2389 Q1490.4673,418.4811 1490.4673,419.0714 L1490.4673,420.9786 Q1490.4673,421.5084 1490.3462,421.6901 Q1490.0889,422.0685 1489.6499,422.0685 Q1489.1958,422.0685 1488.9385,421.6749 Q1488.8174,421.4933 1488.8174,420.8424 L1487.3794,420.8424 Z " fill="#000000"/><text fill="#000000" font-family="'Arial'" font-size="10.6563" lengthAdjust="spacing" textLength="51.533" x="1502.0469" y="423.7647">FontStatus</text><line style="stroke:#333333;stroke-width:0.4844;" x1="1474.9219" x2="1555.5173" y1="435.5704" y2="435.5704"/><line style="stroke:#333333;stroke-width:0.4844;" x1="1474.9219" x2="1555.5173" y1="443.3204" y2="443.3204"/></g><!--class Permission--><g class="entity" data-qualified-name="com.hand2font.model.Permission" data-source-line="50" id="ent0018"><rect fill="#FFFFFF" height="46.5" rx="2.4219" ry="2.4219" style="stroke:#333333;stroke-width:0.4844;" width="83.7037" x="1595.5313" y="404.5704"/><ellipse cx="1610.0625" cy="420.0704" fill="#EB937F" rx="10.6563" ry="10.6563" style="stroke:#181818;stroke-width:0.9688;"/><path d="M1608.9575,420.8424 L1608.9575,423.2643 L1613.1504,423.2643 L1613.1504,422.3712 Q1613.1504,421.7809 1613.3774,421.5236 Q1613.6196,421.2662 1613.9829,421.2662 Q1614.3462,421.2662 1614.5732,421.5236 Q1614.8003,421.7809 1614.8003,422.3712 L1614.8003,424.9142 L1607.0503,424.9142 Q1606.4448,424.9142 1606.1875,424.6871 Q1605.9453,424.4601 1605.9453,424.0817 Q1605.9453,423.7184 1606.2026,423.4913 Q1606.46,423.2643 1607.0503,423.2643 L1607.3076,423.2643 L1607.3076,416.816 L1607.0503,416.816 Q1606.4448,416.816 1606.1875,416.589 Q1605.9453,416.3619 1605.9453,415.9835 Q1605.9453,415.6202 1606.1875,415.3932 Q1606.4448,415.1661 1607.0503,415.1661 L1614.437,415.1661 L1614.437,417.6788 Q1614.437,418.2692 1614.21,418.5265 Q1613.998,418.7687 1613.6196,418.7687 Q1613.2563,418.7687 1613.0293,418.5265 Q1612.8022,418.2692 1612.8022,417.6788 L1612.8022,416.816 L1608.9575,416.816 L1608.9575,419.1925 L1610.3955,419.1925 Q1610.3955,418.5568 1610.5166,418.3751 Q1610.7739,417.9816 1611.228,417.9816 Q1611.5913,417.9816 1611.8184,418.2389 Q1612.0454,418.4811 1612.0454,419.0714 L1612.0454,420.9786 Q1612.0454,421.5084 1611.9243,421.6901 Q1611.667,422.0685 1611.228,422.0685 Q1610.7739,422.0685 1610.5166,421.6749 Q1610.3955,421.4933 1610.3955,420.8424 L1608.9575,420.8424 Z " fill="#000000"/><text fill="#000000" font-family="'Arial'" font-size="10.6563" lengthAdjust="spacing" textLength="52.7037" x="1623.625" y="423.7647">Permission</text><line style="stroke:#333333;stroke-width:0.4844;" x1="1596.5" x2="1678.2662" y1="435.5704" y2="435.5704"/><line style="stroke:#333333;stroke-width:0.4844;" x1="1596.5" x2="1678.2662" y1="443.3204" y2="443.3204"/></g><!--class FontDTO--><g class="entity" data-qualified-name="com.hand2font.dto.FontDTO" data-source-line="57" id="ent0020"><rect fill="#FFFFFF" height="46.5" rx="2.4219" ry="2.4219" style="stroke:#333333;stroke-width:0.4844;" width="74.8165" x="239.7656" y="404.5704"/><ellipse cx="254.2969" cy="420.0704" fill="#ADD1B2" rx="10.6563" ry="10.6563" style="stroke:#181818;stroke-width:0.9688;"/><path d="M256.9761,416.0743 Q257.1274,415.8624 257.3091,415.7565 Q257.4907,415.6505 257.7026,415.6505 Q258.0659,415.6505 258.293,415.9078 Q258.52,416.15 258.52,416.7404 L258.52,418.1481 Q258.52,418.7384 258.293,418.9957 Q258.0659,419.2531 257.7026,419.2531 Q257.3696,419.2531 257.1729,419.0563 Q256.9761,418.8746 256.8701,418.3751 Q256.8247,418.027 256.6431,417.8453 Q256.3252,417.4821 255.7349,417.2701 Q255.1445,417.0582 254.5391,417.0582 Q253.7974,417.0582 253.1768,417.3761 Q252.5713,417.694 252.0869,418.4205 Q251.6177,419.1471 251.6177,420.1461 L251.6177,421.2057 Q251.6177,422.4015 252.4805,423.2037 Q253.3433,423.9908 254.8872,423.9908 Q255.7954,423.9908 256.4312,423.7487 Q256.8096,423.5973 257.2183,423.1735 Q257.4756,422.9161 257.6118,422.8405 Q257.7632,422.7648 257.96,422.7648 Q258.2778,422.7648 258.52,423.0221 Q258.7773,423.2643 258.7773,423.5973 Q258.7773,423.9303 258.4443,424.3239 Q257.96,424.8839 257.188,425.2018 Q256.1436,425.6407 254.8872,425.6407 Q253.4189,425.6407 252.2534,425.0353 Q251.2998,424.5509 250.6338,423.5216 Q249.9678,422.4772 249.9678,421.236 L249.9678,420.1158 Q249.9678,418.8292 250.5581,417.7242 Q251.1636,416.6041 252.2231,416.0138 Q253.2827,415.4083 254.4785,415.4083 Q255.1899,415.4083 255.8105,415.5748 Q256.4463,415.7262 256.9761,416.0743 Z " fill="#000000"/><text fill="#000000" font-family="'Arial'" font-size="10.6563" lengthAdjust="spacing" textLength="43.8165" x="267.8594" y="423.7647">FontDTO</text><line style="stroke:#333333;stroke-width:0.4844;" x1="240.7344" x2="313.6134" y1="435.5704" y2="435.5704"/><line style="stroke:#333333;stroke-width:0.4844;" x1="240.7344" x2="313.6134" y1="443.3204" y2="443.3204"/></g><!--class FontCreationRequest--><g class="entity" data-qualified-name="com.hand2font.dto.FontCreationRequest" data-source-line="58" id="ent0021"><rect fill="#FFFFFF" height="46.5" rx="2.4219" ry="2.4219" style="stroke:#333333;stroke-width:0.4844;" width="132.2916" x="68.2969" y="404.5704"/><ellipse cx="82.8281" cy="420.0704" fill="#ADD1B2" rx="10.6563" ry="10.6563" style="stroke:#181818;stroke-width:0.9688;"/><path d="M85.5073,416.0743 Q85.6587,415.8624 85.8403,415.7565 Q86.022,415.6505 86.2339,415.6505 Q86.5972,415.6505 86.8242,415.9078 Q87.0513,416.15 87.0513,416.7404 L87.0513,418.1481 Q87.0513,418.7384 86.8242,418.9957 Q86.5972,419.2531 86.2339,419.2531 Q85.9009,419.2531 85.7041,419.0563 Q85.5073,418.8746 85.4014,418.3751 Q85.356,418.027 85.1743,417.8453 Q84.8564,417.4821 84.2661,417.2701 Q83.6758,417.0582 83.0703,417.0582 Q82.3286,417.0582 81.708,417.3761 Q81.1025,417.694 80.6182,418.4205 Q80.1489,419.1471 80.1489,420.1461 L80.1489,421.2057 Q80.1489,422.4015 81.0117,423.2037 Q81.8745,423.9908 83.4185,423.9908 Q84.3267,423.9908 84.9624,423.7487 Q85.3408,423.5973 85.7495,423.1735 Q86.0068,422.9161 86.1431,422.8405 Q86.2944,422.7648 86.4912,422.7648 Q86.8091,422.7648 87.0513,423.0221 Q87.3086,423.2643 87.3086,423.5973 Q87.3086,423.9303 86.9756,424.3239 Q86.4912,424.8839 85.7192,425.2018 Q84.6748,425.6407 83.4185,425.6407 Q81.9502,425.6407 80.7847,425.0353 Q79.8311,424.5509 79.165,423.5216 Q78.499,422.4772 78.499,421.236 L78.499,420.1158 Q78.499,418.8292 79.0894,417.7242 Q79.6948,416.6041 80.7544,416.0138 Q81.814,415.4083 83.0098,415.4083 Q83.7212,415.4083 84.3418,415.5748 Q84.9775,415.7262 85.5073,416.0743 Z " fill="#000000"/><text fill="#000000" font-family="'Arial'" font-size="10.6563" lengthAdjust="spacing" textLength="101.2916" x="96.3906" y="423.7647">FontCreationRequest</text><line style="stroke:#333333;stroke-width:0.4844;" x1="69.2656" x2="199.6197" y1="435.5704" y2="435.5704"/><line style="stroke:#333333;stroke-width:0.4844;" x1="69.2656" x2="199.6197" y1="443.3204" y2="443.3204"/></g><!--class UserRepository--><g class="entity" data-qualified-name="com.hand2font.repository.UserRepository" data-source-line="65" id="ent0023"><rect fill="#FFFFFF" height="46.5" rx="2.4219" ry="2.4219" style="stroke:#333333;stroke-width:0.4844;" width="104.4334" x="512.4688" y="404.5704"/><ellipse cx="527" cy="420.0704" fill="#B4A7E5" rx="10.6563" ry="10.6563" style="stroke:#181818;stroke-width:0.9688;"/><path d="M527.9233,416.816 L527.9233,423.2643 L529.5884,423.2643 Q530.1787,423.2643 530.436,423.4913 Q530.6934,423.7184 530.6934,424.0968 Q530.6934,424.4601 530.436,424.6871 Q530.1787,424.9142 529.5884,424.9142 L524.6084,424.9142 Q524.0181,424.9142 523.7607,424.6871 Q523.5034,424.4601 523.5034,424.0817 Q523.5034,423.7184 523.7607,423.4913 Q524.0181,423.2643 524.6084,423.2643 L526.2734,423.2643 L526.2734,416.816 L524.6084,416.816 Q524.0181,416.816 523.7607,416.589 Q523.5034,416.3619 523.5034,415.9835 Q523.5034,415.6202 523.7607,415.3932 Q524.0181,415.1661 524.6084,415.1661 L529.5884,415.1661 Q530.1787,415.1661 530.436,415.3932 Q530.6934,415.6202 530.6934,415.9835 Q530.6934,416.3619 530.436,416.589 Q530.1787,416.816 529.5884,416.816 L527.9233,416.816 Z " fill="#000000"/><text fill="#000000" font-family="'Arial'" font-size="10.6563" font-style="italic" lengthAdjust="spacing" textLength="73.4334" x="540.5625" y="423.7647">UserRepository</text><line style="stroke:#333333;stroke-width:0.4844;" x1="513.4375" x2="615.9334" y1="435.5704" y2="435.5704"/><line style="stroke:#333333;stroke-width:0.4844;" x1="513.4375" x2="615.9334" y1="443.3204" y2="443.3204"/></g><!--class FontRepository--><g class="entity" data-qualified-name="com.hand2font.repository.FontRepository" data-source-line="66" id="ent0024"><rect fill="#FFFFFF" height="46.5" rx="2.4219" ry="2.4219" style="stroke:#333333;stroke-width:0.4844;" width="103.2575" x="369.5781" y="404.5704"/><ellipse cx="384.1094" cy="420.0704" fill="#B4A7E5" rx="10.6563" ry="10.6563" style="stroke:#181818;stroke-width:0.9688;"/><path d="M385.0327,416.816 L385.0327,423.2643 L386.6978,423.2643 Q387.2881,423.2643 387.5454,423.4913 Q387.8027,423.7184 387.8027,424.0968 Q387.8027,424.4601 387.5454,424.6871 Q387.2881,424.9142 386.6978,424.9142 L381.7178,424.9142 Q381.1274,424.9142 380.8701,424.6871 Q380.6128,424.4601 380.6128,424.0817 Q380.6128,423.7184 380.8701,423.4913 Q381.1274,423.2643 381.7178,423.2643 L383.3828,423.2643 L383.3828,416.816 L381.7178,416.816 Q381.1274,416.816 380.8701,416.589 Q380.6128,416.3619 380.6128,415.9835 Q380.6128,415.6202 380.8701,415.3932 Q381.1274,415.1661 381.7178,415.1661 L386.6978,415.1661 Q387.2881,415.1661 387.5454,415.3932 Q387.8027,415.6202 387.8027,415.9835 Q387.8027,416.3619 387.5454,416.589 Q387.2881,416.816 386.6978,416.816 L385.0327,416.816 Z " fill="#000000"/><text fill="#000000" font-family="'Arial'" font-size="10.6563" font-style="italic" lengthAdjust="spacing" textLength="72.2575" x="397.6719" y="423.7647">FontRepository</text><line style="stroke:#333333;stroke-width:0.4844;" x1="370.5469" x2="471.8669" y1="435.5704" y2="435.5704"/><line style="stroke:#333333;stroke-width:0.4844;" x1="370.5469" x2="471.8669" y1="443.3204" y2="443.3204"/></g><!--class PermissionedPeopleRepository--><g class="entity" data-qualified-name="com.hand2font.repository.PermissionedPeopleRepository" data-source-line="67" id="ent0025"><rect fill="#FFFFFF" height="46.5" rx="2.4219" ry="2.4219" style="stroke:#333333;stroke-width:0.4844;" width="179.6724" x="656.3281" y="404.5704"/><ellipse cx="670.8594" cy="420.0704" fill="#B4A7E5" rx="10.6563" ry="10.6563" style="stroke:#181818;stroke-width:0.9688;"/><path d="M671.7827,416.816 L671.7827,423.2643 L673.4478,423.2643 Q674.0381,423.2643 674.2954,423.4913 Q674.5527,423.7184 674.5527,424.0968 Q674.5527,424.4601 674.2954,424.6871 Q674.0381,424.9142 673.4478,424.9142 L668.4678,424.9142 Q667.8774,424.9142 667.6201,424.6871 Q667.3628,424.4601 667.3628,424.0817 Q667.3628,423.7184 667.6201,423.4913 Q667.8774,423.2643 668.4678,423.2643 L670.1328,423.2643 L670.1328,416.816 L668.4678,416.816 Q667.8774,416.816 667.6201,416.589 Q667.3628,416.3619 667.3628,415.9835 Q667.3628,415.6202 667.6201,415.3932 Q667.8774,415.1661 668.4678,415.1661 L673.4478,415.1661 Q674.0381,415.1661 674.2954,415.3932 Q674.5527,415.6202 674.5527,415.9835 Q674.5527,416.3619 674.2954,416.589 Q674.0381,416.816 673.4478,416.816 L671.7827,416.816 Z " fill="#000000"/><text fill="#000000" font-family="'Arial'" font-size="10.6563" font-style="italic" lengthAdjust="spacing" textLength="148.6724" x="684.4219" y="423.7647">PermissionedPeopleRepository</text><line style="stroke:#333333;stroke-width:0.4844;" x1="657.2969" x2="835.0318" y1="435.5704" y2="435.5704"/><line style="stroke:#333333;stroke-width:0.4844;" x1="657.2969" x2="835.0318" y1="443.3204" y2="443.3204"/></g><!--class GeometricStyleRepository--><g class="entity" data-qualified-name="com.hand2font.repository.GeometricStyleRepository" data-source-line="68" id="ent0026"><rect fill="#FFFFFF" height="46.5" rx="2.4219" ry="2.4219" style="stroke:#333333;stroke-width:0.4844;" width="154.7748" x="1253.5625" y="404.5704"/><ellipse cx="1268.0938" cy="420.0704" fill="#B4A7E5" rx="10.6563" ry="10.6563" style="stroke:#181818;stroke-width:0.9688;"/><path d="M1269.0171,416.816 L1269.0171,423.2643 L1270.6821,423.2643 Q1271.2725,423.2643 1271.5298,423.4913 Q1271.7871,423.7184 1271.7871,424.0968 Q1271.7871,424.4601 1271.5298,424.6871 Q1271.2725,424.9142 1270.6821,424.9142 L1265.7021,424.9142 Q1265.1118,424.9142 1264.8545,424.6871 Q1264.5972,424.4601 1264.5972,424.0817 Q1264.5972,423.7184 1264.8545,423.4913 Q1265.1118,423.2643 1265.7021,423.2643 L1267.3672,423.2643 L1267.3672,416.816 L1265.7021,416.816 Q1265.1118,416.816 1264.8545,416.589 Q1264.5972,416.3619 1264.5972,415.9835 Q1264.5972,415.6202 1264.8545,415.3932 Q1265.1118,415.1661 1265.7021,415.1661 L1270.6821,415.1661 Q1271.2725,415.1661 1271.5298,415.3932 Q1271.7871,415.6202 1271.7871,415.9835 Q1271.7871,416.3619 1271.5298,416.589 Q1271.2725,416.816 1270.6821,416.816 L1269.0171,416.816 Z " fill="#000000"/><text fill="#000000" font-family="'Arial'" font-size="10.6563" font-style="italic" lengthAdjust="spacing" textLength="123.7748" x="1281.6563" y="423.7647">GeometricStyleRepository</text><line style="stroke:#333333;stroke-width:0.4844;" x1="1254.5313" x2="1407.3686" y1="435.5704" y2="435.5704"/><line style="stroke:#333333;stroke-width:0.4844;" x1="1254.5313" x2="1407.3686" y1="443.3204" y2="443.3204"/></g><!--class ContentStyleRepository--><g class="entity" data-qualified-name="com.hand2font.repository.ContentStyleRepository" data-source-line="69" id="ent0027"><rect fill="#FFFFFF" height="46.5" rx="2.4219" ry="2.4219" style="stroke:#333333;stroke-width:0.4844;" width="142.9479" x="1071.4375" y="404.5704"/><ellipse cx="1085.9688" cy="420.0704" fill="#B4A7E5" rx="10.6563" ry="10.6563" style="stroke:#181818;stroke-width:0.9688;"/><path d="M1086.8921,416.816 L1086.8921,423.2643 L1088.5571,423.2643 Q1089.1475,423.2643 1089.4048,423.4913 Q1089.6621,423.7184 1089.6621,424.0968 Q1089.6621,424.4601 1089.4048,424.6871 Q1089.1475,424.9142 1088.5571,424.9142 L1083.5771,424.9142 Q1082.9868,424.9142 1082.7295,424.6871 Q1082.4722,424.4601 1082.4722,424.0817 Q1082.4722,423.7184 1082.7295,423.4913 Q1082.9868,423.2643 1083.5771,423.2643 L1085.2422,423.2643 L1085.2422,416.816 L1083.5771,416.816 Q1082.9868,416.816 1082.7295,416.589 Q1082.4722,416.3619 1082.4722,415.9835 Q1082.4722,415.6202 1082.7295,415.3932 Q1082.9868,415.1661 1083.5771,415.1661 L1088.5571,415.1661 Q1089.1475,415.1661 1089.4048,415.3932 Q1089.6621,415.6202 1089.6621,415.9835 Q1089.6621,416.3619 1089.4048,416.589 Q1089.1475,416.816 1088.5571,416.816 L1086.8921,416.816 Z " fill="#000000"/><text fill="#000000" font-family="'Arial'" font-size="10.6563" font-style="italic" lengthAdjust="spacing" textLength="111.9479" x="1099.5313" y="423.7647">ContentStyleRepository</text><line style="stroke:#333333;stroke-width:0.4844;" x1="1072.4063" x2="1213.4166" y1="435.5704" y2="435.5704"/><line style="stroke:#333333;stroke-width:0.4844;" x1="1072.4063" x2="1213.4166" y1="443.3204" y2="443.3204"/></g><!--class ExpressionStyleRepository--><g class="entity" data-qualified-name="com.hand2font.repository.ExpressionStyleRepository" data-source-line="70" id="ent0028"><rect fill="#FFFFFF" height="46.5" rx="2.4219" ry="2.4219" style="stroke:#333333;stroke-width:0.4844;" width="158.3391" x="874.2969" y="404.5704"/><ellipse cx="888.8281" cy="420.0704" fill="#B4A7E5" rx="10.6563" ry="10.6563" style="stroke:#181818;stroke-width:0.9688;"/><path d="M889.7515,416.816 L889.7515,423.2643 L891.4165,423.2643 Q892.0068,423.2643 892.2642,423.4913 Q892.5215,423.7184 892.5215,424.0968 Q892.5215,424.4601 892.2642,424.6871 Q892.0068,424.9142 891.4165,424.9142 L886.4365,424.9142 Q885.8462,424.9142 885.5889,424.6871 Q885.3315,424.4601 885.3315,424.0817 Q885.3315,423.7184 885.5889,423.4913 Q885.8462,423.2643 886.4365,423.2643 L888.1016,423.2643 L888.1016,416.816 L886.4365,416.816 Q885.8462,416.816 885.5889,416.589 Q885.3315,416.3619 885.3315,415.9835 Q885.3315,415.6202 885.5889,415.3932 Q885.8462,415.1661 886.4365,415.1661 L891.4165,415.1661 Q892.0068,415.1661 892.2642,415.3932 Q892.5215,415.6202 892.5215,415.9835 Q892.5215,416.3619 892.2642,416.589 Q892.0068,416.816 891.4165,416.816 L889.7515,416.816 Z " fill="#000000"/><text fill="#000000" font-family="'Arial'" font-size="10.6563" font-style="italic" lengthAdjust="spacing" textLength="127.3391" x="902.3906" y="423.7647">ExpressionStyleRepository</text><line style="stroke:#333333;stroke-width:0.4844;" x1="875.2656" x2="1031.6672" y1="435.5704" y2="435.5704"/><line style="stroke:#333333;stroke-width:0.4844;" x1="875.2656" x2="1031.6672" y1="443.3204" y2="443.3204"/></g><!--class FontService--><g class="entity" data-qualified-name="com.hand2font.service.FontService" data-source-line="77" id="ent0030"><rect fill="#FFFFFF" height="46.5" rx="2.4219" ry="2.4219" style="stroke:#333333;stroke-width:0.4844;" width="87.8559" x="610.7969" y="284.4454"/><ellipse cx="625.3281" cy="299.9454" fill="#ADD1B2" rx="10.6563" ry="10.6563" style="stroke:#181818;stroke-width:0.9688;"/><path d="M628.0073,295.9493 Q628.1587,295.7374 628.3403,295.6315 Q628.522,295.5255 628.7339,295.5255 Q629.0972,295.5255 629.3242,295.7828 Q629.5513,296.025 629.5513,296.6154 L629.5513,298.0231 Q629.5513,298.6134 629.3242,298.8707 Q629.0972,299.1281 628.7339,299.1281 Q628.4009,299.1281 628.2041,298.9313 Q628.0073,298.7496 627.9014,298.2501 Q627.856,297.902 627.6743,297.7203 Q627.3564,297.3571 626.7661,297.1451 Q626.1758,296.9332 625.5703,296.9332 Q624.8286,296.9332 624.208,297.2511 Q623.6025,297.569 623.1182,298.2955 Q622.6489,299.0221 622.6489,300.0211 L622.6489,301.0807 Q622.6489,302.2765 623.5117,303.0787 Q624.3745,303.8658 625.9185,303.8658 Q626.8267,303.8658 627.4624,303.6237 Q627.8408,303.4723 628.2495,303.0485 Q628.5068,302.7911 628.6431,302.7155 Q628.7944,302.6398 628.9912,302.6398 Q629.3091,302.6398 629.5513,302.8971 Q629.8086,303.1393 629.8086,303.4723 Q629.8086,303.8053 629.4756,304.1989 Q628.9912,304.7589 628.2192,305.0768 Q627.1748,305.5157 625.9185,305.5157 Q624.4502,305.5157 623.2847,304.9103 Q622.3311,304.4259 621.665,303.3966 Q620.999,302.3522 620.999,301.111 L620.999,299.9908 Q620.999,298.7042 621.5894,297.5992 Q622.1948,296.4791 623.2544,295.8888 Q624.314,295.2833 625.5098,295.2833 Q626.2212,295.2833 626.8418,295.4498 Q627.4775,295.6012 628.0073,295.9493 Z " fill="#000000"/><text fill="#000000" font-family="'Arial'" font-size="10.6563" lengthAdjust="spacing" textLength="56.8559" x="638.8906" y="303.6397">FontService</text><line style="stroke:#333333;stroke-width:0.4844;" x1="611.7656" x2="697.684" y1="315.4454" y2="315.4454"/><line style="stroke:#333333;stroke-width:0.4844;" x1="611.7656" x2="697.684" y1="323.1954" y2="323.1954"/></g><!--class UserService--><g class="entity" data-qualified-name="com.hand2font.service.UserService" data-source-line="78" id="ent0031"><rect fill="#FFFFFF" height="46.5" rx="2.4219" ry="2.4219" style="stroke:#333333;stroke-width:0.4844;" width="89.0318" x="482.4375" y="284.4454"/><ellipse cx="496.9688" cy="299.9454" fill="#ADD1B2" rx="10.6563" ry="10.6563" style="stroke:#181818;stroke-width:0.9688;"/><path d="M499.6479,295.9493 Q499.7993,295.7374 499.981,295.6315 Q500.1626,295.5255 500.3745,295.5255 Q500.7378,295.5255 500.9648,295.7828 Q501.1919,296.025 501.1919,296.6154 L501.1919,298.0231 Q501.1919,298.6134 500.9648,298.8707 Q500.7378,299.1281 500.3745,299.1281 Q500.0415,299.1281 499.8447,298.9313 Q499.6479,298.7496 499.542,298.2501 Q499.4966,297.902 499.3149,297.7203 Q498.9971,297.3571 498.4067,297.1451 Q497.8164,296.9332 497.2109,296.9332 Q496.4692,296.9332 495.8486,297.2511 Q495.2432,297.569 494.7588,298.2955 Q494.2896,299.0221 494.2896,300.0211 L494.2896,301.0807 Q494.2896,302.2765 495.1523,303.0787 Q496.0151,303.8658 497.5591,303.8658 Q498.4673,303.8658 499.103,303.6237 Q499.4814,303.4723 499.8901,303.0485 Q500.1475,302.7911 500.2837,302.7155 Q500.4351,302.6398 500.6318,302.6398 Q500.9497,302.6398 501.1919,302.8971 Q501.4492,303.1393 501.4492,303.4723 Q501.4492,303.8053 501.1162,304.1989 Q500.6318,304.7589 499.8599,305.0768 Q498.8154,305.5157 497.5591,305.5157 Q496.0908,305.5157 494.9253,304.9103 Q493.9717,304.4259 493.3057,303.3966 Q492.6396,302.3522 492.6396,301.111 L492.6396,299.9908 Q492.6396,298.7042 493.23,297.5992 Q493.8354,296.4791 494.895,295.8888 Q495.9546,295.2833 497.1504,295.2833 Q497.8618,295.2833 498.4824,295.4498 Q499.1182,295.6012 499.6479,295.9493 Z " fill="#000000"/><text fill="#000000" font-family="'Arial'" font-size="10.6563" lengthAdjust="spacing" textLength="58.0318" x="510.5313" y="303.6397">UserService</text><line style="stroke:#333333;stroke-width:0.4844;" x1="483.4063" x2="570.5006" y1="315.4454" y2="315.4454"/><line style="stroke:#333333;stroke-width:0.4844;" x1="483.4063" x2="570.5006" y1="323.1954" y2="323.1954"/></g><!--class FontController--><g class="entity" data-qualified-name="com.hand2font.controllers.FontController" data-source-line="85" id="ent0033"><rect fill="#FFFFFF" height="46.5" rx="2.4219" ry="2.4219" style="stroke:#333333;stroke-width:0.4844;" width="98.5173" x="611.2813" y="164.3204"/><ellipse cx="625.8125" cy="179.8204" fill="#ADD1B2" rx="10.6563" ry="10.6563" style="stroke:#181818;stroke-width:0.9688;"/><path d="M628.4917,175.8243 Q628.6431,175.6124 628.8247,175.5065 Q629.0063,175.4005 629.2183,175.4005 Q629.5815,175.4005 629.8086,175.6578 Q630.0356,175.9 630.0356,176.4904 L630.0356,177.8981 Q630.0356,178.4884 629.8086,178.7457 Q629.5815,179.0031 629.2183,179.0031 Q628.8853,179.0031 628.6885,178.8063 Q628.4917,178.6246 628.3857,178.1251 Q628.3403,177.777 628.1587,177.5953 Q627.8408,177.2321 627.2505,177.0201 Q626.6602,176.8082 626.0547,176.8082 Q625.313,176.8082 624.6924,177.1261 Q624.0869,177.444 623.6025,178.1705 Q623.1333,178.8971 623.1333,179.8961 L623.1333,180.9557 Q623.1333,182.1515 623.9961,182.9537 Q624.8589,183.7408 626.4028,183.7408 Q627.311,183.7408 627.9468,183.4987 Q628.3252,183.3473 628.7339,182.9235 Q628.9912,182.6661 629.1274,182.5905 Q629.2788,182.5148 629.4756,182.5148 Q629.7935,182.5148 630.0356,182.7721 Q630.293,183.0143 630.293,183.3473 Q630.293,183.6803 629.96,184.0739 Q629.4756,184.6339 628.7036,184.9518 Q627.6592,185.3907 626.4028,185.3907 Q624.9346,185.3907 623.769,184.7853 Q622.8154,184.3009 622.1494,183.2716 Q621.4834,182.2272 621.4834,180.986 L621.4834,179.8658 Q621.4834,178.5792 622.0737,177.4742 Q622.6792,176.3541 623.7388,175.7638 Q624.7983,175.1583 625.9941,175.1583 Q626.7056,175.1583 627.3262,175.3248 Q627.9619,175.4762 628.4917,175.8243 Z " fill="#000000"/><text fill="#000000" font-family="'Arial'" font-size="10.6563" lengthAdjust="spacing" textLength="67.5173" x="639.375" y="183.5147">FontController</text><line style="stroke:#333333;stroke-width:0.4844;" x1="612.25" x2="708.8298" y1="195.3204" y2="195.3204"/><line style="stroke:#333333;stroke-width:0.4844;" x1="612.25" x2="708.8298" y1="203.0704" y2="203.0704"/></g><!--class UserController--><g class="entity" data-qualified-name="com.hand2font.controllers.UserController" data-source-line="86" id="ent0034"><rect fill="#FFFFFF" height="46.5" rx="2.4219" ry="2.4219" style="stroke:#333333;stroke-width:0.4844;" width="99.6933" x="472.2656" y="164.3204"/><ellipse cx="486.7969" cy="179.8204" fill="#ADD1B2" rx="10.6563" ry="10.6563" style="stroke:#181818;stroke-width:0.9688;"/><path d="M489.4761,175.8243 Q489.6274,175.6124 489.8091,175.5065 Q489.9907,175.4005 490.2026,175.4005 Q490.5659,175.4005 490.793,175.6578 Q491.02,175.9 491.02,176.4904 L491.02,177.8981 Q491.02,178.4884 490.793,178.7457 Q490.5659,179.0031 490.2026,179.0031 Q489.8696,179.0031 489.6729,178.8063 Q489.4761,178.6246 489.3701,178.1251 Q489.3247,177.777 489.1431,177.5953 Q488.8252,177.2321 488.2349,177.0201 Q487.6445,176.8082 487.0391,176.8082 Q486.2974,176.8082 485.6768,177.1261 Q485.0713,177.444 484.5869,178.1705 Q484.1177,178.8971 484.1177,179.8961 L484.1177,180.9557 Q484.1177,182.1515 484.9805,182.9537 Q485.8433,183.7408 487.3872,183.7408 Q488.2954,183.7408 488.9312,183.4987 Q489.3096,183.3473 489.7183,182.9235 Q489.9756,182.6661 490.1118,182.5905 Q490.2632,182.5148 490.46,182.5148 Q490.7778,182.5148 491.02,182.7721 Q491.2773,183.0143 491.2773,183.3473 Q491.2773,183.6803 490.9443,184.0739 Q490.46,184.6339 489.688,184.9518 Q488.6436,185.3907 487.3872,185.3907 Q485.9189,185.3907 484.7534,184.7853 Q483.7998,184.3009 483.1338,183.2716 Q482.4678,182.2272 482.4678,180.986 L482.4678,179.8658 Q482.4678,178.5792 483.0581,177.4742 Q483.6636,176.3541 484.7231,175.7638 Q485.7827,175.1583 486.9785,175.1583 Q487.6899,175.1583 488.3105,175.3248 Q488.9463,175.4762 489.4761,175.8243 Z " fill="#000000"/><text fill="#000000" font-family="'Arial'" font-size="10.6563" lengthAdjust="spacing" textLength="68.6933" x="500.3594" y="183.5147">UserController</text><line style="stroke:#333333;stroke-width:0.4844;" x1="473.2344" x2="570.9901" y1="195.3204" y2="195.3204"/><line style="stroke:#333333;stroke-width:0.4844;" x1="473.2344" x2="570.9901" y1="203.0704" y2="203.0704"/></g><!--link FontController to FontService--><g class="link" data-entity-1="ent0033" data-entity-2="ent0030" data-link-type="dependency" data-source-line="92" id="lnk35"><path codeLine="92" d="M655.1172,211.0142 C655.1172,232.1814 655.1172,257.3495 655.1172,278.4973" fill="none" id="FontController-to-FontService" style="stroke:#333333;stroke-width:0.9688;"/><polygon fill="#333333" points="655.1172,284.3098,658.9922,275.5911,655.1172,279.4661,651.2422,275.5911,655.1172,284.3098" style="stroke:#333333;stroke-width:0.9688;"/></g><!--link UserController to UserService--><g class="link" data-entity-1="ent0034" data-entity-2="ent0031" data-link-type="dependency" data-source-line="93" id="lnk36"><path codeLine="93" d="M527,211.0142 C527,232.1814 527,257.3495 527,278.4973" fill="none" id="UserController-to-UserService" style="stroke:#333333;stroke-width:0.9688;"/><polygon fill="#333333" points="527,284.3098,530.875,275.5911,527,279.4661,523.125,275.5911,527,284.3098" style="stroke:#333333;stroke-width:0.9688;"/></g><!--link FontService to FontRepository--><g class="link" data-entity-1="ent0030" data-entity-2="ent0024" data-link-type="dependency" data-source-line="95" id="lnk37"><path codeLine="95" d="M646.5244,331.0617 C646.5244,356.8886 646.5244,394.8829 646.5244,394.8829 C646.5244,394.8829 420.9219,394.8829 420.9219,394.8829 C420.9219,394.8829 420.9219,393.1392 420.9219,398.4189" fill="none" id="FontService-to-FontRepository" style="stroke:#333333;stroke-width:0.9688;"/><polygon fill="#333333" points="420.9219,404.2314,424.7969,395.5126,420.9219,399.3876,417.0469,395.5126,420.9219,404.2314" style="stroke:#333333;stroke-width:0.9688;"/></g><!--link FontService to UserRepository--><g class="link" data-entity-1="ent0030" data-entity-2="ent0023" data-link-type="dependency" data-source-line="96" id="lnk38"><path codeLine="96" d="M610.4578,307.6954 C599.7919,307.6954 591.4219,307.6954 591.4219,307.6954 C591.4219,307.6954 591.4219,363.602 591.4219,398.5642" fill="none" id="FontService-to-UserRepository" style="stroke:#333333;stroke-width:0.9688;"/><polygon fill="#333333" points="591.4219,404.3767,595.2969,395.6579,591.4219,399.5329,587.5469,395.6579,591.4219,404.3767" style="stroke:#333333;stroke-width:0.9688;"/></g><!--link FontService to PermissionedPeopleRepository--><g class="link" data-entity-1="ent0030" data-entity-2="ent0025" data-link-type="dependency" data-source-line="97" id="lnk39"><path codeLine="97" d="M677.6406,331.1392 C677.6406,352.3064 677.6406,377.4745 677.6406,398.6223" fill="none" id="FontService-to-PermissionedPeopleRepository" style="stroke:#333333;stroke-width:0.9688;"/><polygon fill="#333333" points="677.6406,404.4348,681.5156,395.7161,677.6406,399.5911,673.7656,395.7161,677.6406,404.4348" style="stroke:#333333;stroke-width:0.9688;"/></g><!--link FontService to GeometricStyleRepository--><g class="link" data-entity-1="ent0030" data-entity-2="ent0026" data-link-type="dependency" data-source-line="98" id="lnk40"><path codeLine="98" d="M699.0694,296.0704 C845.4378,296.0704 1305.2259,296.0704 1305.2259,296.0704 C1305.2259,296.0704 1305.2259,360.9379 1305.2259,398.7579" fill="none" id="FontService-to-GeometricStyleRepository" style="stroke:#333333;stroke-width:0.9688;"/><polygon fill="#333333" points="1305.2259,404.5704,1309.1009,395.8517,1305.2259,399.7267,1301.3509,395.8517,1305.2259,404.5704" style="stroke:#333333;stroke-width:0.9688;"/></g><!--link FontService to ContentStyleRepository--><g class="link" data-entity-1="ent0030" data-entity-2="ent0027" data-link-type="dependency" data-source-line="99" id="lnk41"><path codeLine="99" d="M698.9822,307.6954 C814.8931,307.6954 1119.2259,307.6954 1119.2259,307.6954 C1119.2259,307.6954 1119.2259,363.602 1119.2259,398.5642" fill="none" id="FontService-to-ContentStyleRepository" style="stroke:#333333;stroke-width:0.9688;"/><polygon fill="#333333" points="1119.2259,404.3767,1123.1009,395.6579,1119.2259,399.5329,1115.3509,395.6579,1119.2259,404.3767" style="stroke:#333333;stroke-width:0.9688;"/></g><!--link FontService to ExpressionStyleRepository--><g class="link" data-entity-1="ent0030" data-entity-2="ent0028" data-link-type="dependency" data-source-line="100" id="lnk42"><path codeLine="100" d="M699.1953,319.3204 C776.2788,319.3204 926.9291,319.3204 926.9291,319.3204 C926.9291,319.3204 926.9291,366.8473 926.9291,398.7289" fill="none" id="FontService-to-ExpressionStyleRepository" style="stroke:#333333;stroke-width:0.9688;"/><polygon fill="#333333" points="926.9291,404.5414,930.8041,395.8226,926.9291,399.6976,923.0541,395.8226,926.9291,404.5414" style="stroke:#333333;stroke-width:0.9688;"/></g><!--link FontService to FontCreationRequest--><g class="link" data-entity-1="ent0030" data-entity-2="ent0021" data-link-type="dependency" data-source-line="102" id="lnk43"><path codeLine="102" d="M626.8975,331.1101 C626.8975,350.0395 626.8975,373.5704 626.8975,373.5704 C626.8975,373.5704 134.6563,373.5704 134.6563,373.5704 C134.6563,373.5704 134.6563,383.9845 134.6563,398.6901" fill="none" id="FontService-to-FontCreationRequest" style="stroke:#333333;stroke-width:0.9688;stroke-dasharray:6.7813,6.7813;"/><polygon fill="#333333" points="134.6563,404.5026,138.5313,395.7839,134.6563,399.6589,130.7813,395.7839,134.6563,404.5026" style="stroke:#333333;stroke-width:0.9688;"/></g><!--link FontService to FontDTO--><g class="link" data-entity-1="ent0030" data-entity-2="ent0020" data-link-type="dependency" data-source-line="103" id="lnk44"><path codeLine="103" d="M636.7109,331.0714 C636.7109,353.5754 636.7109,384.2267 636.7109,384.2267 C636.7109,384.2267 277.0625,384.2267 277.0625,384.2267 C277.0625,384.2267 277.0625,388.3148 277.0625,398.6804" fill="none" id="FontService-to-FontDTO" style="stroke:#333333;stroke-width:0.9688;stroke-dasharray:6.7813,6.7813;"/><polygon fill="#333333" points="277.0625,404.4929,280.9375,395.7742,277.0625,399.6492,273.1875,395.7742,277.0625,404.4929" style="stroke:#333333;stroke-width:0.9688;"/></g><!--link SecurityConfig to JwtAuthenticationFilter--><g class="link" data-entity-1="ent0007" data-entity-2="ent0006" data-link-type="dependency" data-source-line="105" id="lnk45"><path codeLine="105" d="M2232.7266,331.1392 C2232.7266,352.3064 2232.7266,377.4745 2232.7266,398.6223" fill="none" id="SecurityConfig-to-JwtAuthenticationFilter" style="stroke:#333333;stroke-width:0.9688;"/><polygon fill="#333333" points="2232.7266,404.4348,2236.6016,395.7161,2232.7266,399.5911,2228.8516,395.7161,2232.7266,404.4348" style="stroke:#333333;stroke-width:0.9688;"/></g><!--link JwtAuthenticationFilter to JwtUtil--><g class="link" data-entity-1="ent0006" data-entity-2="ent0003" data-link-type="dependency" data-source-line="106" id="lnk46"><path codeLine="106" d="M2213.5938,451.1189 C2213.5938,463.1411 2213.5938,471.9664 2213.5938,483.9886" fill="none" id="JwtAuthenticationFilter-to-JwtUtil" style="stroke:#333333;stroke-width:0.9688;"/><polygon fill="#333333" points="2213.5938,489.8011,2217.4688,481.0823,2213.5938,484.9573,2209.7188,481.0823,2213.5938,489.8011" style="stroke:#333333;stroke-width:0.9688;"/></g><!--link DataInitializer to GeometricStyleRepository--><g class="link" data-entity-1="ent0009" data-entity-2="ent0026" data-link-type="dependency" data-source-line="108" id="lnk47"><path codeLine="108" d="M1971.1641,331.1101 C1971.1641,346.1645 1971.1641,362.9142 1971.1641,362.9142 C1971.1641,362.9142 1356.8991,362.9142 1356.8991,362.9142 C1356.8991,362.9142 1356.8991,379.9836 1356.8991,398.5739" fill="none" id="DataInitializer-to-GeometricStyleRepository" style="stroke:#333333;stroke-width:0.9688;stroke-dasharray:6.7813,6.7813;"/><polygon fill="#333333" points="1356.8991,404.3864,1360.7741,395.6676,1356.8991,399.5426,1353.0241,395.6676,1356.8991,404.3864" style="stroke:#333333;stroke-width:0.9688;"/></g><!--link DataInitializer to ContentStyleRepository--><g class="link" data-entity-1="ent0009" data-entity-2="ent0027" data-link-type="dependency" data-source-line="109" id="lnk48"><path codeLine="109" d="M1947.1875,331.0229 C1947.1875,341.8051 1947.1875,352.2579 1947.1875,352.2579 C1947.1875,352.2579 1167.0241,352.2579 1167.0241,352.2579 C1167.0241,352.2579 1167.0241,376.3314 1167.0241,398.5157" fill="none" id="DataInitializer-to-ContentStyleRepository" style="stroke:#333333;stroke-width:0.9688;stroke-dasharray:6.7813,6.7813;"/><polygon fill="#333333" points="1167.0241,404.3282,1170.8991,395.6095,1167.0241,399.4845,1163.1491,395.6095,1167.0241,404.3282" style="stroke:#333333;stroke-width:0.9688;"/></g><!--link DataInitializer to ExpressionStyleRepository--><g class="link" data-entity-1="ent0009" data-entity-2="ent0028" data-link-type="dependency" data-source-line="110" id="lnk49"><path codeLine="110" d="M1923.2109,331.2457 C1923.2109,337.0292 1923.2109,341.6017 1923.2109,341.6017 C1923.2109,341.6017 979.5709,341.6017 979.5709,341.6017 C979.5709,341.6017 979.5709,372.9214 979.5709,398.4479" fill="none" id="DataInitializer-to-ExpressionStyleRepository" style="stroke:#333333;stroke-width:0.9688;stroke-dasharray:6.7813,6.7813;"/><polygon fill="#333333" points="979.5709,404.2604,983.4459,395.5417,979.5709,399.4167,975.6959,395.5417,979.5709,404.2604" style="stroke:#333333;stroke-width:0.9688;"/></g><?plantuml-src nLRTRjCm5BxFKrZbWgjL6uEBSJ6ffEiO21WRUm0tEMsjENQm7KP1atY48G7In8y45moUoFSy2OwRDdPISzVWzg8-tqa_-pjVZYtF2Sknm1bASu9sjxSZkOfGma3DSq1Sg1bt0CPJa92ZkswsmEoy5KmebdAWb23ZGi5HmjafUGF8UuuNB4suO23GFISkPpZb5uHDqGHJ2L5q6-aV-bh_r1_rUwHlz1TzfR_hQsJcD_gNGQwQnEXjXCnuW9FpgQM9EUK2tHhPiS2uI45KyLqxR7mW1BzeXqUSARk3dPtL_2dE0FK6Wc3QYouZPn6v8SPJ22vZh_oqbx5dHuFFuLTp2cZCQLgoAQBCx25cwPqIH5ievbbEGG4QWYHJXc8hnP3WgLbJAUEV3-ysyJN_V3o87myE3-uZK-W9cMwGQobjB-5PVrRkVc9str_mzYh55oPuTA7E5A5-P52e6J154gm8PoD25GWdunIIGX0rZnVxg84JF1uJzUHv2nXYXOyOKSO5fbwYB4qdIcVcNQJT2srfVPtFf2TXwKPdUWmY8r8QiI4z1cuSwe27m3CmJIAntdO08xE2ol9E-E1rBi3-MOq0AxBg_S2ga7MiPkwiAAdYtPV4aFe5ASKOldZMYCG2hETFu6K1KdMcYO2SIwAuc7SlJSszL8WONua9Ji3QzgHUcm-MWWN1jgM3gRx1WscktOD93VCxULsLqYZsYYJGVHqhuhRDJwiL-Tre6RtixjHJWbDg-k3_EFagRjcM9wuNvYla01iMoTpHVjjRsbUalvaVd_KdCp7J3RBwMqTRM_kUMNm1BEow9d9oLyywRriJRZII9lpFRj5C3lQBPcAWOpJJmZt3I-ttzzUU4UjoofCbykz9bYfqkGh4by_OArhKk4LPig0Mwv83UgnB3Mlo5m00?></g></svg>